<?xml version="1.0" encoding="UTF-8" standalone="no"?>
<!-- Created with Inkscape (http://www.inkscape.org/) -->

<svg
   width="48"
   height="48"
   viewBox="0 0 48 48"
   version="1.1"
   id="svg5"
   inkscape:version="1.2 (dc2aeda, 2022-05-15)"
   sodipodi:docname="happy_wink.svg"
   xmlns:inkscape="http://www.inkscape.org/namespaces/inkscape"
   xmlns:sodipodi="http://sodipodi.sourceforge.net/DTD/sodipodi-0.dtd"
   xmlns="http://www.w3.org/2000/svg"
   xmlns:svg="http://www.w3.org/2000/svg">
  <sodipodi:namedview
     id="namedview7"
     pagecolor="#ffffff"
     bordercolor="#000000"
     borderopacity="0.25"
     inkscape:showpageshadow="2"
     inkscape:pageopacity="0.0"
     inkscape:pagecheckerboard="0"
     inkscape:deskcolor="#d1d1d1"
     inkscape:document-units="px"
     showgrid="false"
     inkscape:zoom="4.9166667"
     inkscape:cx="43.220339"
     inkscape:cy="47.389831"
     inkscape:window-width="1440"
     inkscape:window-height="872"
     inkscape:window-x="0"
     inkscape:window-y="28"
     inkscape:window-maximized="0"
     inkscape:current-layer="layer1" />
  <defs
     id="defs2">
    <inkscape:path-effect
       effect="powerstroke"
       id="path-effect738"
       is_visible="true"
       lpeversion="1"
       offset_points="0.56724429,1.5254237"
       not_jump="true"
       sort_points="true"
       interpolator_type="CentripetalCatmullRom"
       interpolator_beta="0.75"
       start_linecap_type="round"
       linejoin_type="spiro"
       miter_limit="4"
       scale_width="1"
       end_linecap_type="round" />
    <inkscape:path-effect
       effect="simplify"
       id="path-effect736"
       is_visible="true"
       lpeversion="1"
       steps="1"
       threshold="0.0047745358"
       smooth_angles="0"
       helper_size="0"
       simplify_individual_paths="false"
       simplify_just_coalesce="false"
       step="1" />
    <inkscape:path-effect
       effect="powerstroke"
       id="path-effect731"
       is_visible="true"
       lpeversion="1"
       offset_points="1.1979044,1.5254237"
       not_jump="true"
       sort_points="true"
       interpolator_type="CentripetalCatmullRom"
       interpolator_beta="0.75"
       start_linecap_type="round"
       linejoin_type="spiro"
       miter_limit="4"
       scale_width="1"
       end_linecap_type="round" />
    <inkscape:path-effect
       effect="simplify"
       id="path-effect729"
       is_visible="true"
       lpeversion="1"
       steps="1"
       threshold="0.0047745358"
       smooth_angles="0"
       helper_size="0"
       simplify_individual_paths="false"
       simplify_just_coalesce="false"
       step="1" />
    <inkscape:path-effect
       effect="bspline"
       id="path-effect726"
       is_visible="true"
       lpeversion="1"
       weight="33.333333"
       steps="2"
       helper_size="0"
       apply_no_weight="true"
       apply_with_weight="true"
       only_selected="false" />
    <inkscape:path-effect
       effect="powerstroke"
       id="path-effect720"
       is_visible="true"
       lpeversion="1"
       offset_points="0.5,1.0328155"
       not_jump="true"
       sort_points="true"
       interpolator_type="CentripetalCatmullRom"
       interpolator_beta="0.75"
       start_linecap_type="round"
       linejoin_type="spiro"
       miter_limit="4"
       scale_width="1"
       end_linecap_type="round" />
    <inkscape:path-effect
       effect="simplify"
       id="path-effect718"
       is_visible="true"
       lpeversion="1"
       steps="1"
       threshold="0.0047745358"
       smooth_angles="0"
       helper_size="0"
       simplify_individual_paths="false"
       simplify_just_coalesce="false"
       step="1" />
    <inkscape:path-effect
       effect="powerstroke"
       id="path-effect713"
       is_visible="true"
       lpeversion="1"
       offset_points="0.54270073,1.5254237"
       not_jump="true"
       sort_points="true"
       interpolator_type="CentripetalCatmullRom"
       interpolator_beta="0.75"
       start_linecap_type="round"
       linejoin_type="spiro"
       miter_limit="4"
       scale_width="1"
       end_linecap_type="round" />
    <inkscape:path-effect
       effect="simplify"
       id="path-effect711"
       is_visible="true"
       lpeversion="1"
       steps="1"
       threshold="0.0047745358"
       smooth_angles="0"
       helper_size="0"
       simplify_individual_paths="false"
       simplify_just_coalesce="false"
       step="1" />
    <inkscape:path-effect
       effect="powerstroke"
       id="path-effect706"
       is_visible="true"
       lpeversion="1"
       offset_points="1.097695,1.5254237"
       not_jump="true"
       sort_points="true"
       interpolator_type="CentripetalCatmullRom"
       interpolator_beta="0.75"
       start_linecap_type="round"
       linejoin_type="spiro"
       miter_limit="4"
       scale_width="1"
       end_linecap_type="round" />
    <inkscape:path-effect
       effect="simplify"
       id="path-effect704"
       is_visible="true"
       lpeversion="1"
       steps="1"
       threshold="0.0047745358"
       smooth_angles="0"
       helper_size="0"
       simplify_individual_paths="false"
       simplify_just_coalesce="false"
       step="1" />
    <inkscape:path-effect
       effect="powerstroke"
       id="path-effect699"
       is_visible="true"
       lpeversion="1"
       offset_points="0.2808468,1.5254237"
       not_jump="true"
       sort_points="true"
       interpolator_type="CentripetalCatmullRom"
       interpolator_beta="0.75"
       start_linecap_type="round"
       linejoin_type="spiro"
       miter_limit="4"
       scale_width="1"
       end_linecap_type="round" />
    <inkscape:path-effect
       effect="simplify"
       id="path-effect697"
       is_visible="true"
       lpeversion="1"
       steps="1"
       threshold="0.0047745358"
       smooth_angles="0"
       helper_size="0"
       simplify_individual_paths="false"
       simplify_just_coalesce="false"
       step="1" />
    <inkscape:path-effect
       effect="powerstroke"
       id="path-effect692"
       is_visible="true"
       lpeversion="1"
       offset_points="0.19680627,1.5254237"
       not_jump="true"
       sort_points="true"
       interpolator_type="CentripetalCatmullRom"
       interpolator_beta="0.75"
       start_linecap_type="round"
       linejoin_type="spiro"
       miter_limit="4"
       scale_width="1"
       end_linecap_type="round" />
    <inkscape:path-effect
       effect="simplify"
       id="path-effect690"
       is_visible="true"
       lpeversion="1"
       steps="1"
       threshold="0.0047745358"
       smooth_angles="0"
       helper_size="0"
       simplify_individual_paths="false"
       simplify_just_coalesce="false"
       step="1" />
    <inkscape:path-effect
       effect="powerstroke"
       id="path-effect685"
       is_visible="true"
       lpeversion="1"
       offset_points="0.75813803,1.5254237"
       not_jump="true"
       sort_points="true"
       interpolator_type="CentripetalCatmullRom"
       interpolator_beta="0.75"
       start_linecap_type="round"
       linejoin_type="spiro"
       miter_limit="4"
       scale_width="1"
       end_linecap_type="round" />
    <inkscape:path-effect
       effect="simplify"
       id="path-effect683"
       is_visible="true"
       lpeversion="1"
       steps="1"
       threshold="0.0047745358"
       smooth_angles="0"
       helper_size="0"
       simplify_individual_paths="false"
       simplify_just_coalesce="false"
       step="1" />
    <inkscape:path-effect
       effect="powerstroke"
       id="path-effect678"
       is_visible="true"
       lpeversion="1"
       offset_points="0.54136462,1.5254237"
       not_jump="true"
       sort_points="true"
       interpolator_type="CentripetalCatmullRom"
       interpolator_beta="0.75"
       start_linecap_type="round"
       linejoin_type="spiro"
       miter_limit="4"
       scale_width="1"
       end_linecap_type="round" />
    <inkscape:path-effect
       effect="simplify"
       id="path-effect676"
       is_visible="true"
       lpeversion="1"
       steps="1"
       threshold="0.0047745358"
       smooth_angles="0"
       helper_size="0"
       simplify_individual_paths="false"
       simplify_just_coalesce="false"
       step="1" />
    <inkscape:path-effect
       effect="powerstroke"
       id="path-effect671"
       is_visible="true"
       lpeversion="1"
       offset_points="0.23120635,1.5254237"
       not_jump="true"
       sort_points="true"
       interpolator_type="CentripetalCatmullRom"
       interpolator_beta="0.75"
       start_linecap_type="round"
       linejoin_type="spiro"
       miter_limit="4"
       scale_width="1"
       end_linecap_type="round" />
    <inkscape:path-effect
       effect="simplify"
       id="path-effect669"
       is_visible="true"
       lpeversion="1"
       steps="1"
       threshold="0.0047745358"
       smooth_angles="0"
       helper_size="0"
       simplify_individual_paths="false"
       simplify_just_coalesce="false"
       step="1" />
    <inkscape:path-effect
       effect="powerstroke"
       id="path-effect664"
       is_visible="true"
       lpeversion="1"
       offset_points="0.71315797,1.5254237"
       not_jump="true"
       sort_points="true"
       interpolator_type="CentripetalCatmullRom"
       interpolator_beta="0.75"
       start_linecap_type="round"
       linejoin_type="spiro"
       miter_limit="4"
       scale_width="1"
       end_linecap_type="round" />
    <inkscape:path-effect
       effect="simplify"
       id="path-effect662"
       is_visible="true"
       lpeversion="1"
       steps="1"
       threshold="0.0047745358"
       smooth_angles="0"
       helper_size="0"
       simplify_individual_paths="false"
       simplify_just_coalesce="false"
       step="1" />
    <inkscape:path-effect
       effect="powerstroke"
       id="path-effect657"
       is_visible="true"
       lpeversion="1"
       offset_points="0.72142919,1.5254237"
       not_jump="true"
       sort_points="true"
       interpolator_type="CentripetalCatmullRom"
       interpolator_beta="0.75"
       start_linecap_type="round"
       linejoin_type="spiro"
       miter_limit="4"
       scale_width="1"
       end_linecap_type="round" />
    <inkscape:path-effect
       effect="simplify"
       id="path-effect655"
       is_visible="true"
       lpeversion="1"
       steps="1"
       threshold="0.0047745358"
       smooth_angles="0"
       helper_size="0"
       simplify_individual_paths="false"
       simplify_just_coalesce="false"
       step="1" />
    <inkscape:path-effect
       effect="powerstroke"
       id="path-effect650"
       is_visible="true"
       lpeversion="1"
       offset_points="0.46216051,1.5254237"
       not_jump="true"
       sort_points="true"
       interpolator_type="CentripetalCatmullRom"
       interpolator_beta="0.75"
       start_linecap_type="round"
       linejoin_type="spiro"
       miter_limit="4"
       scale_width="1"
       end_linecap_type="round" />
    <inkscape:path-effect
       effect="simplify"
       id="path-effect648"
       is_visible="true"
       lpeversion="1"
       steps="1"
       threshold="0.0047745358"
       smooth_angles="0"
       helper_size="0"
       simplify_individual_paths="false"
       simplify_just_coalesce="false"
       step="1" />
    <inkscape:path-effect
       effect="powerstroke"
       id="path-effect643"
       is_visible="true"
       lpeversion="1"
       offset_points="0.31842206,1.5254237"
       not_jump="true"
       sort_points="true"
       interpolator_type="CentripetalCatmullRom"
       interpolator_beta="0.75"
       start_linecap_type="round"
       linejoin_type="spiro"
       miter_limit="4"
       scale_width="1"
       end_linecap_type="round" />
    <inkscape:path-effect
       effect="simplify"
       id="path-effect641"
       is_visible="true"
       lpeversion="1"
       steps="1"
       threshold="0.0047745358"
       smooth_angles="0"
       helper_size="0"
       simplify_individual_paths="false"
       simplify_just_coalesce="false"
       step="1" />
    <inkscape:path-effect
       effect="bspline"
       id="path-effect638"
       is_visible="true"
       lpeversion="1"
       weight="33.333333"
       steps="2"
       helper_size="0"
       apply_no_weight="true"
       apply_with_weight="true"
       only_selected="false" />
    <inkscape:path-effect
       effect="spiro"
       id="path-effect634"
       is_visible="true"
       lpeversion="1" />
  </defs>
  <g
     inkscape:label="Layer 1"
     inkscape:groupmode="layer"
     id="layer1">
    <path
       id="path-1-8"
       style="fill:#000000;fill-opacity:0.996587;fill-rule:nonzero;stroke:none"
       d="m 19.990664,20.747253 a 1.5254237,1.5254237 0 0 0 -1.236328,0.693359 c -0.126099,0.194226 -0.270646,0.458793 -0.398437,0.826172 -0.07934,0.228085 -0.136523,0.447404 -0.191407,0.675781 -0.0075,0.0314 -0.01422,0.06124 -0.02148,0.0918 -0.02971,0.125025 -0.0623,0.264704 -0.0957,0.38086 -0.02531,0.08801 -0.04927,0.155828 -0.07227,0.208984 -0.200978,0.33901 -0.390128,0.804418 -0.402343,1.359375 -0.0061,0.275829 0.0337,0.574511 0.138671,0.875 0.07148,0.204622 0.170619,0.399842 0.296875,0.583984 0.124649,0.258613 0.283795,0.493563 0.472657,0.699219 0.238545,0.259762 0.517355,0.466471 0.8125,0.623047 0.573758,0.304384 1.233007,0.426389 1.873047,0.355469 0.854297,-0.0844 1.67161,-0.357862 2.382812,-0.767578 0.766828,-0.441767 1.410821,-1.039978 1.878906,-1.742188 0.403197,-0.598068 0.546279,-1.275476 0.50586,-1.873047 -0.02495,-0.368852 -0.119156,-0.709003 -0.257813,-1.005859 -0.183334,-0.392507 -0.430518,-0.68171 -0.660156,-0.886719 a 1.5254237,1.5254237 0 0 0 -2.417969,0.740234 c 0.09927,0.02433 0.196789,0.123383 0.238281,0.310547 0.0032,0.01414 0.0029,0.0067 0.0059,0.01953 0.01301,0.03932 0.03608,0.07868 0.05078,0.11914 0.01775,0.05587 0.04117,0.111032 0.04687,0.169922 0.0044,0.03374 0.01006,0.06738 0.02148,0.09961 0.01852,0.07155 0.02538,0.143167 0.02148,0.216797 -5e-4,0.04963 -0.0027,0.09889 -0.0059,0.148438 -0.0044,0.05909 -0.0092,0.118131 -0.02344,0.175781 -0.01378,0.05352 -0.02554,0.07959 -0.02344,0.0918 -0.0019,0.062 -0.0045,0.124127 -0.01367,0.185547 -0.01813,0.112105 -0.0549,0.215902 -0.140626,0.294922 -0.07069,0.06085 -0.148338,0.110258 -0.236328,0.142578 -0.08717,0.03904 -0.177171,0.06931 -0.269531,0.09375 -0.0897,0.02546 -0.180816,0.04585 -0.271484,0.06836 -0.219752,0.123538 -0.457167,0.221127 -0.703125,0.285157 -0.05057,0.02491 -0.102113,0.04917 -0.15625,0.06641 -0.106874,0.03608 -0.293428,0.09329 -0.392578,0.01172 -0.0052,-0.0042 -0.01084,-0.0091 -0.01563,-0.01367 -0.0013,-5.58e-4 -0.0048,-0.0014 -0.0059,-0.002 l -0.0078,-0.01367 c -0.0124,-0.01367 -0.02213,-0.0299 -0.0332,-0.04492 l -0.002,-0.002 c -0.06338,-0.0466 -0.120295,-0.126459 -0.154296,-0.246094 -0.0011,-0.0039 -0.0047,-0.0089 -0.0039,-0.01367 -0.04467,-0.07844 -0.07978,-0.15822 -0.08398,-0.25 -8e-6,-0.04395 4.7e-5,-0.08691 0,-0.130859 -5.9e-5,-0.04358 3.23e-4,-0.08729 0,-0.13086 -3e-4,-0.04355 -5.06e-4,-0.08733 -0.002,-0.130859 -0.0017,-0.04438 -0.005,-0.08864 -0.0098,-0.132813 -0.01212,-0.07976 -0.03069,-0.158714 -0.01758,-0.240234 0.01722,-0.09164 0.04344,-0.180232 0.08594,-0.263672 0.04417,-0.0854 0.09519,-0.167402 0.128906,-0.257812 0.04012,-0.09384 0.06801,-0.191356 0.08984,-0.291016 0.0403,-0.111707 0.0921,-0.217737 0.167968,-0.310547 0.03464,-0.04211 0.06993,-0.08368 0.105469,-0.125 -0.0037,-0.06245 -0.0082,-0.124704 -0.01172,-0.1875 -0.0027,-0.09764 0.0039,-0.194871 0.02148,-0.291015 -6e-4,-0.08997 -0.0012,-0.179592 -0.0039,-0.269532 -0.0037,-0.10488 -0.0086,-0.210048 -0.01953,-0.314453 -0.0091,-0.08055 -0.01585,-0.162904 -0.04102,-0.240234 -0.01809,-0.0556 -0.02883,-0.106664 -0.0332,-0.154297 a 1.5254237,1.5254237 0 0 0 -0.910156,-0.28125 z m 0.742188,4.33789 c 0.01028,0.01254 0.02194,0.02731 0.0293,0.04688 z" />
    <g
       id="g765"
       transform="matrix(0.86899887,0,0,0.83655293,1.7877422,5.4619048)">
      <path
         id="path-1-4"
         style="fill:#000000;fill-opacity:0.996587;fill-rule:nonzero;stroke:none"
         d="m 40.374396,19.764666 c -0.0195,0.01029 -0.03935,0.01894 -0.05844,0.03035 -0.05784,0.02598 -0.116499,0.05307 -0.170815,0.08638 -0.04769,0.02558 -0.08286,0.07354 -0.130358,0.100394 -0.03999,0.04031 -0.08019,0.09038 -0.116873,0.137749 -0.04242,0.05778 -0.0824,0.11847 -0.112378,0.184443 -0.04456,0.09352 -0.09187,0.185804 -0.134853,0.280168 -0.05032,0.111076 -0.09996,0.220597 -0.150587,0.331531 -0.05754,0.117757 -0.120019,0.23163 -0.184299,0.34554 -0.05919,0.133746 -0.121101,0.267459 -0.1843,0.399239 -0.05456,0.109918 -0.105876,0.222943 -0.148339,0.338536 -0.04261,0.102695 -0.0889,0.203692 -0.114625,0.312854 -0.02434,0.0851 -0.05502,0.168071 -0.07417,0.254485 -0.0236,0.104509 -0.0528,0.207796 -0.06293,0.315189 -0.02877,0.146754 -0.06837,0.290138 -0.114626,0.431925 -0.03466,0.100131 -0.06182,0.20119 -0.0899,0.303515 -0.03365,0.09903 -0.06746,0.197497 -0.10114,0.29651 -0.03444,0.09218 -0.05013,0.189024 -0.08091,0.282503 -0.02947,0.0871 -0.06412,0.172856 -0.08091,0.263824 -0.02949,0.09693 -0.04383,0.117173 -0.06293,0.210126 -0.02456,0.07324 -0.04683,0.117164 -0.06293,0.189113 -0.02143,0.06831 -0.04257,0.136746 -0.06293,0.205456 0.0033,0.04826 0.0031,0.101351 -0.0045,0.158762 -0.01391,0.104884 -0.03513,0.208696 -0.06293,0.310519 -0.01785,0.08256 -0.05311,0.158219 -0.07866,0.238142 -0.01931,0.08177 -0.06016,0.157081 -0.101141,0.228804 -0.02163,0.04023 -0.03513,0.0855 -0.05169,0.12841 -0.02193,0.05913 -0.05547,0.110818 -0.08091,0.1681 -0.03229,0.07149 -0.07907,0.136177 -0.121369,0.200787 -0.04769,0.0847 -0.113732,0.146715 -0.182052,0.212461 -0.05221,0.04912 -0.104015,0.09925 -0.157329,0.147088 -0.04634,0.03929 -0.08546,0.08742 -0.125863,0.133079 -0.06755,0.0658 -0.139134,0.126061 -0.206775,0.191448 -0.03734,0.03419 -0.07429,0.06945 -0.110131,0.105063 -0.526993,0.813016 -1.195088,1.584935 -2.004821,2.304378 -1.247096,1.108036 -2.768674,2.040999 -4.418698,2.747977 -2.228209,0.845366 -4.305094,2.024335 -6.297657,3.058496 -2.019588,1.048194 -3.922608,1.932872 -5.958275,2.360412 -0.0074,0.0016 -0.0151,0.0031 -0.02248,0.0047 -0.577431,0.130274 -1.22392,0.174815 -1.84974,0.123741 -0.167665,-0.01368 -0.329101,-0.0342 -0.485473,-0.0607 0.319154,-0.01376 0.664303,-0.03957 1.004659,-0.09105 0.31384,-0.04746 0.662696,-0.120435 1.015896,-0.240477 0.327869,-0.111437 0.68216,-0.270407 1.022638,-0.504301 0.02151,-0.01478 0.04376,-0.03131 0.06518,-0.04669 0.280943,-0.202004 0.573542,-0.472657 0.827101,-0.838168 0.236773,-0.341314 0.427241,-0.747246 0.543909,-1.221064 0.02404,-0.09763 0.03829,-0.19606 0.0427,-0.29651 0.01991,-0.453985 -0.02756,-0.913722 -0.150586,-1.358813 -0.110326,-0.09156 -0.140502,-0.212778 -0.103388,-0.312854 -0.0373,-0.09945 -0.0701,-0.199468 -0.116873,-0.29651 -0.281001,-0.583071 -0.710221,-1.056296 -1.249642,-1.398504 -0.496015,-0.314666 -1.051658,-0.498253 -1.615994,-0.579013 -0.53387,-0.0764 -1.089215,-0.06397 -1.638469,0.02101 -1.013966,0.156864 -2.106319,0.582235 -3.00948,1.279432 -0.432224,0.33367 -0.842013,0.747228 -1.166482,1.244411 -0.309784,0.474667 -0.546277,1.037787 -0.631564,1.664662 -0.103439,0.590556 -0.124484,1.170626 -0.04945,1.730035 0.07549,0.562298 0.244543,1.088863 0.503453,1.568938 0.253773,0.470566 0.584705,0.877261 0.964202,1.221064 0.372261,0.337246 0.787029,0.608339 1.224919,0.826494 0.85348,0.425207 1.812527,0.653816 2.755506,0.730771 0.924626,0.07546 1.876927,0.0084 2.757753,-0.189113 2.461901,-0.518776 4.669336,-1.566825 6.724692,-2.633576 2.142716,-1.112075 3.983551,-2.162465 6.003226,-2.925416 0.01997,-0.0075 0.03881,-0.01497 0.05844,-0.02335 1.920208,-0.819012 3.743533,-1.922241 5.277265,-3.284965 1.666537,-1.480706 2.943067,-3.222978 3.701727,-5.185435 0.04381,-0.11333 0.07412,-0.232069 0.0899,-0.352544 0.09728,-0.74294 0.31116,-1.541093 0.492215,-2.264688 0.27904,-1.115245 0.43379,-1.885311 0.492215,-2.708286 A 1.5254237,1.5254237 0 0 0 40.374396,19.764666 Z M 16.271589,33.644634 c 0.123975,-0.0018 0.237337,0.0044 0.337133,0.01868 0.210688,0.03015 0.340527,0.08675 0.413551,0.133079 0.06884,0.04367 0.106266,0.09011 0.134853,0.149423 0.02769,0.05745 0.06367,0.162013 0.07192,0.338536 -0.01642,0.03779 -0.03307,0.06458 -0.04495,0.08171 -0.02553,0.03681 -0.05636,0.06821 -0.10114,0.100394 -0.0035,0.0025 -0.0075,0.0067 -0.01124,0.0093 -0.06079,0.04176 -0.149623,0.0853 -0.276449,0.12841 -0.13713,0.04661 -0.302882,0.08577 -0.492216,0.114402 -0.441584,0.06678 -0.954454,0.07344 -1.409218,0.07004 -0.50807,-0.0038 -0.793628,-0.01135 -1.04961,-0.01401 0.103128,-0.138287 0.235422,-0.280409 0.413551,-0.417917 0.457702,-0.35331 1.055125,-0.591345 1.609251,-0.677071 0.145007,-0.02243 0.280586,-0.03319 0.404561,-0.03502 z" />
      <g
         id="g757"
         transform="translate(-0.40677966,-0.61016949)">
        <path
           d="m 16.685654,39.148616 c 0.143128,-0.01029 0.262135,-0.01713 0.598011,-0.03418 0.174485,-0.0089 0.646619,-0.03043 1.064847,-0.07625 0.901382,-0.09875 1.531747,-0.298385 2.044348,-0.546247 a 1.5254237,1.5254237 90 0 0 -1.328092,-2.746606 c -0.174509,0.08438 -0.464564,0.19618 -1.048489,0.260149 -0.309714,0.03393 -0.680062,0.05151 -0.88727,0.06203 -0.281036,0.01427 -0.5466,0.0298 -0.662121,0.03811 a 1.5254237,1.5254237 90 0 0 0.218766,3.042994 z"
           id="path-1-1"
           inkscape:path-effect="#path-effect690;#path-effect692"
           inkscape:original-d="m 16.576271,37.627119 c 1.046878,-0.06946 2.23727,-0.05084 3.152543,-0.508475"
           style="fill:#000000;fill-opacity:0.996587;fill-rule:nonzero;stroke:none" />
        <path
           d="m 17.035851,33.6302 c 0.04951,0.01564 0.06802,0.03226 0.03853,0.01057 -0.0044,-0.0032 -0.0095,-0.0071 -0.01551,-0.01172 -0.04513,-0.03494 -0.07985,-0.06531 -0.225147,-0.195414 -0.09013,-0.08071 -0.289549,-0.26159 -0.520964,-0.418209 -0.223015,-0.150934 -0.530945,-0.320055 -0.924144,-0.412328 -0.0093,-0.0022 -0.01861,-0.0043 -0.02794,-0.0063 -0.224388,-0.04823 -0.409428,-0.05449 -0.513883,-0.05444 a 1.5254237,1.5254237 90 0 0 0.0013,3.050848 c -0.02566,1.1e-5 -0.07181,-0.0015 -0.128569,-0.01369 -0.0093,-0.002 -0.01865,-0.0041 -0.02794,-0.0063 -0.06854,-0.01608 -0.106869,-0.04346 -0.08882,-0.03124 0.03387,0.02292 0.08539,0.06561 0.195749,0.164431 0.132949,0.11905 0.247459,0.222558 0.392854,0.335107 0.02464,0.01907 0.04972,0.03803 0.07526,0.05682 0.335643,0.246887 0.627091,0.370481 0.850035,0.440923 a 1.5254237,1.5254237 90 0 0 0.91916,-2.909092 z"
           id="path-1-71"
           inkscape:path-effect="#path-effect697;#path-effect699"
           inkscape:original-d="M 16.576271,35.084746 C 15.930353,34.8855 15.563324,34.067797 14.847458,34.067797"
           style="fill:#000000;fill-opacity:0.996587;fill-rule:nonzero;stroke:none" />
        <path
           id="path-1-87"
           style="fill:#000000;fill-opacity:0.996587;fill-rule:nonzero;stroke:none"
           d="m 29.81759,32.790928 c -0.05753,0.01312 -0.114224,0.02871 -0.170814,0.04669 -0.08358,0.01953 -0.169107,0.03731 -0.253974,0.04903 -0.0856,0.01736 -0.16714,0.05156 -0.253974,0.06304 -0.1198,0.02158 -0.236585,0.05389 -0.355115,0.08172 -0.13171,0.02317 -0.263337,0.04566 -0.39557,0.06537 -0.131185,0.0254 -0.262322,0.05309 -0.393322,0.07938 -0.08152,0.01761 -0.163124,0.0292 -0.240489,0.06304 -0.10855,0.0372 -0.221561,0.06597 -0.328143,0.109732 -0.142746,0.04428 -0.285104,0.08909 -0.431531,0.119071 -0.14806,0.02888 -0.295073,0.0642 -0.445017,0.08172 -0.146002,0.0124 -0.290169,0.03053 -0.436026,0.04436 -0.127291,0.0035 -0.25513,0.01061 -0.382085,0.02101 -0.128786,0.01095 -0.255607,0.02803 -0.384332,0.03736 -0.06399,0.0013 -0.129493,0.0036 -0.19329,0.0093 -0.06967,0.0073 -0.138547,0.01562 -0.206775,0.03269 -0.0933,0.01672 -0.186423,0.01933 -0.280945,0.01634 -0.06125,6.7e-5 -0.123045,-4.66e-4 -0.1843,0 -0.05407,4.79e-4 -0.107785,0.0028 -0.161824,0.0047 -0.05475,0.0023 -0.109676,0.0044 -0.164072,0.01167 -0.06817,0.0096 -0.129284,0.04897 -0.200032,0.04669 -0.04365,0.0016 -0.08937,0.0049 -0.132606,0.01167 -0.05658,0.0089 -0.111694,0.02469 -0.166319,0.04203 -0.06273,0.01285 -0.124511,0.02111 -0.186548,0.03736 -0.06643,0.01864 -0.132,0.04592 -0.200032,0.05837 -0.07267,0.02191 -0.144185,0.03975 -0.220261,0.03969 -0.0429,0.0042 -0.0868,0.01019 -0.128111,0.02335 -0.07752,0.01986 -0.156379,0.02932 -0.235993,0.02802 -0.135757,0.07201 -0.27363,0.140543 -0.420294,0.205456 -0.2537,0.112292 -0.458146,0.176297 -0.629316,0.210126 -0.115832,0.02289 -0.213169,0.03067 -0.296677,0.03035 -0.05682,-2.17e-4 -0.11308,-0.0032 -0.168567,-0.01167 -0.136026,-0.0207 -0.27244,-0.02336 -0.409056,-0.007 -0.530153,0.06348 -0.993496,0.235825 -1.355277,0.392234 -0.378631,0.163699 -0.680928,0.320301 -0.914756,0.422586 -0.272652,0.119274 -0.422739,0.157634 -0.519185,0.170436 -0.05156,0.0068 -0.08483,0.005 -0.107883,0.0023 -0.03193,-0.0037 -0.06465,-0.01307 -0.10114,-0.02802 a 1.5260526,1.5260526 0 0 0 -1.155245,2.825023 c 0.234821,0.09615 0.541245,0.191219 0.908013,0.233473 0.27665,0.03187 0.562156,0.02988 0.858567,-0.0093 0.495334,-0.06574 0.939571,-0.22427 1.339545,-0.399239 0.351714,-0.153859 0.656505,-0.312095 0.90127,-0.417917 0.161903,-0.07 0.282285,-0.110795 0.375342,-0.135414 0.114072,0.0096 0.226878,0.01359 0.337134,0.01401 0.29553,0.0011 0.596396,-0.02846 0.901271,-0.08872 0.442514,-0.08746 0.864749,-0.232941 1.272117,-0.413248 0.708887,-0.313758 1.409494,-0.757871 1.908177,-1.03662 0.0049,-0.0027 0.0086,-0.0042 0.01349,-0.007 0.15976,-0.09164 0.35609,-0.171734 0.60684,-0.249816 0.269747,-0.084 0.559755,-0.154098 0.890033,-0.238142 0.37682,-0.09589 0.74309,-0.194011 1.114789,-0.333867 0.525859,-0.197858 0.922866,-0.427088 1.242899,-0.663063 a 1.5254237,1.5254237 0 0 0 0.539414,-1.690344 z m -4.926646,0.294176 c -0.06069,0.0054 -0.121303,0.01087 -0.182052,0.01634 -0.0082,6.77e-4 -0.01649,0.0016 -0.02472,0.0023 0.05414,2.68e-4 0.107337,0.0011 0.159577,-0.0093 0.01556,-0.0037 0.03153,-0.0063 0.0472,-0.0093 z" />
        <path
           id="path-1-877"
           style="fill:#000000;fill-opacity:0.996587;fill-rule:nonzero;stroke:none"
           d="m 34.153129,31.011864 c -0.05578,0.04178 -0.112203,0.08273 -0.16632,0.126075 -0.06979,0.06264 -0.143252,0.115683 -0.22026,0.168101 -0.06475,0.04245 -0.13207,0.08234 -0.200033,0.119071 -0.07074,0.02715 -0.137646,0.06246 -0.204528,0.09806 -0.026,0.01325 -0.05371,0.02242 -0.08091,0.03269 -0.04758,0.098 -0.155883,0.18554 -0.337133,0.221799 -0.03131,0.0062 0.0092,-0.0055 -0.01349,0 0.01372,-0.01139 -0.106894,0.07015 -0.10114,0.06537 -0.07299,0.0466 -0.150451,0.08125 -0.231498,0.109732 -0.102052,0.03275 -0.209345,0.05722 -0.316906,0.05603 -0.03112,1.49e-4 -0.06159,0.0018 -0.09215,0.0023 -0.0059,0.0026 -0.01201,0.0046 -0.01798,0.007 -0.106367,0.04306 -0.214945,0.08156 -0.328144,0.100394 -0.03169,0.0053 -0.06105,0.0082 -0.0899,0.0093 -0.06088,0.03117 -0.123303,0.05758 -0.182052,0.09339 -0.09459,0.04536 -0.182959,0.106668 -0.280945,0.144753 -0.121429,0.05146 -0.24291,0.103318 -0.368599,0.142419 -0.106303,0.0404 -0.210985,0.08209 -0.319153,0.116736 -0.151119,0.04602 -0.305772,0.0785 -0.46075,0.107398 -0.166756,0.02602 -0.332864,0.05372 -0.494462,0.105062 -0.08358,0.01953 -0.169107,0.03731 -0.253974,0.04903 -0.0856,0.01736 -0.167141,0.05156 -0.253974,0.06304 -0.1198,0.02158 -0.236585,0.05389 -0.355115,0.08172 -0.131709,0.02317 -0.263337,0.04566 -0.39557,0.06537 -0.131185,0.0254 -0.262322,0.05309 -0.393322,0.07938 -0.08152,0.01761 -0.163124,0.0292 -0.240489,0.06304 -0.10855,0.0372 -0.221561,0.06597 -0.328143,0.109732 -0.142746,0.04428 -0.285105,0.08909 -0.431531,0.119071 -0.14806,0.02888 -0.295073,0.0642 -0.445017,0.08172 -0.146002,0.0124 -0.290169,0.03053 -0.436026,0.04436 -0.127291,0.0035 -0.25513,0.01061 -0.382085,0.02101 -0.128786,0.01095 -0.255607,0.02803 -0.384332,0.03736 -0.06399,0.0013 -0.129493,0.0036 -0.19329,0.0093 -0.06967,0.0073 -0.138547,0.01562 -0.206775,0.03269 -0.0933,0.01672 -0.186423,0.01933 -0.280945,0.01634 -0.06125,6.7e-5 -0.123045,-4.66e-4 -0.1843,0 -0.05407,4.79e-4 -0.107785,0.0028 -0.161824,0.0047 -0.05475,0.0023 -0.109676,0.0044 -0.164072,0.01167 -0.06817,0.0096 -0.129284,0.04897 -0.200032,0.04669 -0.04365,0.0016 -0.08937,0.0049 -0.132606,0.01167 -0.05658,0.0089 -0.111694,0.02469 -0.166319,0.04203 -0.06273,0.01285 -0.124511,0.02111 -0.186548,0.03736 -0.06643,0.01864 -0.132,0.04592 -0.200032,0.05837 -0.07267,0.02191 -0.144185,0.03975 -0.220261,0.03969 -0.0429,0.0042 -0.0868,0.01019 -0.128111,0.02335 -0.08859,0.0227 -0.178314,0.03352 -0.269707,0.02802 h -0.218013 -0.289935 c -0.07435,-10e-7 -0.148158,9e-6 -0.222508,0 -0.08433,-1.1e-5 -0.169635,4.1e-5 -0.253974,0 -0.07182,-3.9e-5 -0.143947,4.2e-4 -0.215765,0 -0.06068,-3.58e-4 -0.121397,-4.9e-4 -0.182053,-0.0023 -0.07022,-0.0026 -0.139149,-0.006 -0.209022,-0.01401 -0.09192,-0.0104 -0.183662,-0.02465 -0.274202,-0.04436 -0.126761,-0.0276 -0.217522,-0.08094 -0.278698,-0.142418 -0.201911,-0.01396 -0.385303,-0.02786 -0.528176,-0.04203 a 1.5260784,1.5260784 0 0 0 -0.298925,3.037483 c 0.941981,0.09339 3.103038,0.252049 5.666093,-0.268494 1.108462,-0.225122 2.644754,-0.646664 4.29733,-1.496562 0.113185,-0.0073 0.262432,-0.01121 0.465244,-0.01401 0.280562,-0.0039 0.707155,-0.0063 1.110294,-0.04436 0.206663,-0.01956 0.432471,-0.04946 0.665277,-0.102728 0.231454,-0.05296 0.483523,-0.131335 0.734951,-0.249816 0.254017,-0.119698 0.508522,-0.282179 0.743942,-0.501967 0.183578,-0.171389 0.34397,-0.366935 0.476482,-0.586017 0.02298,-0.01566 0.02679,-0.01795 0.05394,-0.03736 0.145793,-0.104215 0.287475,-0.225276 0.418046,-0.378226 a 1.5254237,1.5254237 0 0 0 -0.159576,-2.115265 z" />
      </g>
    </g>
    <g
       id="g751"
       transform="translate(1.6271186)">
      <path
         d="m 13.767064,12.306404 c -0.178122,0.0074 -0.540296,-0.03865 -1.361671,0.06897 -0.22602,0.02962 -0.513902,0.08202 -0.820167,0.186783 -0.0365,0.01249 -0.07423,0.02604 -0.11298,0.04077 -0.277552,0.105505 -0.63619,0.281805 -0.98679,0.589429 -0.07978,0.07 -0.158189,0.142572 -0.22179,0.22754 -0.0636,0.08497 -0.111135,0.180653 -0.155814,0.276925 -0.395968,0.853202 -0.794096,1.925798 -1.1074596,3.250496 -0.060378,0.229815 -0.095209,0.507513 -0.051713,0.811784 0.02273,0.159 0.065947,0.317898 0.1320061,0.47228 0.065328,0.152673 0.1486234,0.290716 0.2442992,0.413249 0.1876169,0.240283 0.4058726,0.399985 0.5938403,0.50545 0.182865,0.102602 0.359979,0.166818 0.503177,0.20896 0.268874,0.07913 0.535528,0.112764 0.690808,0.131581 0.08483,0.01028 0.155426,0.01818 0.202869,0.02436 0.04695,0.0061 0.07247,0.01176 0.05077,0.0069 l 0.212209,0.03195 c 0.483914,0.03831 1.046846,0.07503 1.624701,0.05774 0.575845,-0.01723 1.199749,-0.0883 1.831727,-0.278539 0.112567,-0.03389 0.22087,-0.08068 0.322691,-0.139437 0.319097,-0.184126 0.571689,-0.411846 0.771688,-0.64337 0.19861,-0.229914 0.348663,-0.467424 0.463832,-0.676474 0.186558,-0.33863 0.409683,-0.876481 0.470108,-1.007256 0.104098,-0.219956 0.193196,-0.47079 0.253851,-0.729807 0.06218,-0.26553 0.108113,-0.597375 0.07719,-0.951179 -0.01629,-0.186453 -0.05556,-0.397775 -0.137842,-0.615862 -0.08548,-0.226577 -0.218147,-0.461694 -0.416166,-0.673939 -0.20616,-0.220971 -0.454509,-0.386183 -0.725479,-0.493971 -0.209405,-0.0833 -0.417628,-0.126713 -0.613572,-0.144523 -0.114962,-0.02352 -0.154602,-0.02983 -0.142994,-0.02662 0.0093,0.0026 0.04854,0.0141 0.103473,0.04111 0.07397,0.03637 0.150079,0.0877 0.220596,0.153228 a 1.5254237,1.5254237 90 0 0 -2.0768,2.234854 c 0.145314,0.135037 0.314873,0.253735 0.509885,0.349635 0.151003,0.07426 0.297425,0.125137 0.430903,0.161989 0.218322,0.06028 0.390637,0.08445 0.433809,0.09361 0.09489,0.02013 0.191498,0.03116 0.288482,0.03295 -0.04927,-9.07e-4 -0.151822,-0.0099 -0.281432,-0.06144 -0.131376,-0.05226 -0.264397,-0.138261 -0.377606,-0.259603 -0.107574,-0.115301 -0.171434,-0.234628 -0.207542,-0.330333 -0.03408,-0.09033 -0.04389,-0.160129 -0.04698,-0.195491 -0.0053,-0.06024 0.0046,-0.06566 -0.0084,-0.01004 -0.01124,0.04799 -0.02898,0.09516 -0.04127,0.120947 -0.0018,0.0038 -0.0036,0.0077 -0.0054,0.01154 -0.167486,0.359234 -0.284521,0.656678 -0.378932,0.828049 -0.04795,0.08704 -0.0817,0.132627 -0.100384,0.154251 -0.01571,0.01818 -0.01191,0.0092 0.01225,-0.0048 0.101821,-0.05875 0.210124,-0.105551 0.322691,-0.139437 -0.304205,0.09157 -0.647866,0.138579 -1.043559,0.150416 -0.379033,0.01134 -0.777579,-0.01001 -1.207528,-0.04295 -0.07458,-0.01322 -0.142275,-0.0226 -0.194782,-0.02944 -0.08977,-0.0117 -0.16579,-0.01999 -0.230005,-0.02777 -0.130906,-0.01586 -0.216514,-0.03552 -0.196502,-0.02963 0.0049,0.0014 0.0553,0.01614 0.128348,0.05712 0.07617,0.04274 0.20076,0.12751 0.317967,0.277619 0.05996,0.07679 0.113592,0.165257 0.155909,0.264153 0.0428,0.100019 0.06958,0.200326 0.08328,0.296168 0.02767,0.193591 -0.0017,0.338867 -0.02122,0.408022 l 0.01677,-0.06488 c 0.265216,-1.127607 0.596594,-2.012299 0.910819,-2.689369 l -0.377604,0.504465 c 0.0099,-0.0087 0.02121,-0.01667 0.05868,-0.03091 0.0051,-0.002 0.0106,-0.0039 0.0164,-0.0059 0.05269,-0.01802 0.127253,-0.03508 0.229075,-0.04842 0.253923,-0.03327 0.944039,-0.03959 1.092199,-0.04575 a 1.5254237,1.5254237 90 0 0 -0.126888,-3.048208 z"
         id="path-1"
         inkscape:path-effect="#path-effect655;#path-effect657"
         inkscape:original-d="m 13.830508,13.830508 c -0.744106,0.01492 -1.819211,-0.0113 -2.338983,0.508475 -0.145826,0.145826 -1.222837,3.150044 -1.016949,3.355932 0.47111,0.47111 3.618375,0.536903 4.271187,0.101695 0.413687,-0.275791 1.498333,-2.366074 1.016949,-2.847457 -0.227679,-0.227679 -0.859605,-0.147741 -1.118644,-0.40678"
         style="fill:#000000;fill-opacity:0.996587;fill-rule:nonzero;stroke:none" />
      <path
         d="m 17.118973,13.979713 c -0.01539,-0.02225 -0.02796,-0.04083 -0.0984,-0.151895 -0.01844,-0.02908 -0.114691,-0.183319 -0.214672,-0.319973 -0.07586,-0.10368 -0.191014,-0.250354 -0.345517,-0.398413 -0.142701,-0.136751 -0.325912,-0.281655 -0.556694,-0.403038 -0.0043,-0.0023 -0.0087,-0.0046 -0.01307,-0.0068 -0.278314,-0.142969 -0.552994,-0.213458 -0.766887,-0.248659 -0.269698,-0.04438 -0.516411,-0.04394 -0.575829,-0.04415 a 1.5254237,1.5254237 90 0 0 -0.01107,3.050828 c 0.03717,1.34e-4 0.10035,0.0051 0.09148,0.0037 -0.0064,-0.001 -0.05635,-0.0092 -0.131728,-0.04796 -0.0044,-0.0022 -0.0087,-0.0045 -0.01307,-0.0068 -0.0675,-0.0355 -0.112015,-0.07333 -0.133991,-0.09439 -0.02103,-0.02015 -0.0235,-0.027 -0.0058,-0.0029 0.0268,0.03664 0.06272,0.09294 0.100502,0.152512 0.06191,0.09761 0.130485,0.202569 0.165649,0.253408 a 1.5254237,1.5254237 90 0 0 2.509132,-1.73549 z"
         id="path-1-7"
         inkscape:path-effect="#path-effect669;#path-effect671"
         inkscape:original-d="M 15.864407,14.847458 C 15.477845,14.261691 15.350751,13.932203 14.542373,13.932203"
         style="fill:#000000;fill-opacity:0.996587;fill-rule:nonzero;stroke:none" />
      <path
         d="m 13.282063,15.206041 c 0.03647,-0.02348 0.08623,-0.0493 0.144628,-0.06437 0.03185,-0.0082 0.06142,-0.01194 0.08729,-0.01197 l -0.02212,2.64e-4 c -0.01866,4.23e-4 -0.05016,1.91e-4 -0.07911,1.99e-4 a 1.0328155,1.0328155 90 0 0 5.46e-4,2.06563 c 0.013,-3e-6 0.05552,6.78e-4 0.11571,-5.22e-4 0.159855,-0.0013 0.298912,-0.02385 0.413746,-0.05348 0.20999,-0.05418 0.36322,-0.138252 0.45761,-0.19903 a 1.0328155,1.0328155 90 0 0 -1.1183,-1.736732 z"
         id="path-1-44"
         inkscape:path-effect="#path-effect718;#path-effect720"
         inkscape:original-d="m 13.841213,16.074407 c -0.152851,0.09395 -0.277801,0.08858 -0.428189,0.08858"
         style="fill:#000000;fill-opacity:0.996587;fill-rule:nonzero;stroke:none;stroke-width:0.677068" />
    </g>
    <g
       id="g746"
       transform="matrix(0.80583911,-0.11845028,0.11348969,0.77209132,5.714297,8.0935107)">
      <path
         id="path-1-6"
         style="fill:#000000;fill-opacity:0.996587;fill-rule:nonzero;stroke:none"
         d="m 37.188269,10.381973 a 1.5254237,1.5254237 0 0 0 -1.561065,0.885978 c -0.06596,0.145043 -0.123551,0.290874 -0.179847,0.440486 0.03378,0.08934 0.04253,0.207303 0.01199,0.350387 -0.01474,0.06908 -0.03302,0.13838 -0.06714,0.200221 -0.04671,0.0818 -0.06159,0.09622 -0.110306,0.167685 -0.03713,0.04716 -0.07403,0.09703 -0.1175,0.137652 -0.0857,0.281651 -0.171685,0.56077 -0.261376,0.805889 -0.09081,0.248189 -0.181709,0.447145 -0.287754,0.605669 -0.0868,0.129749 -0.188431,0.240707 -0.326121,0.337873 -0.860601,0.536049 -1.807069,1.05163 -2.812794,1.454105 0.08493,-0.09494 0.167813,-0.192706 0.244591,-0.300332 0.171426,-0.240305 0.333365,-0.535344 0.441222,-0.875967 0.07142,-0.22556 0.121641,-0.482143 0.127091,-0.76084 0.0022,-0.110099 -0.0022,-0.226197 -0.01678,-0.347884 -0.02906,-0.242369 -0.100799,-0.499091 -0.220611,-0.753331 -8.57e-4,-8.08e-4 -0.0015,-0.0017 -0.0024,-0.0025 -0.03887,-0.03694 -0.07532,-0.07618 -0.107908,-0.120132 -0.08375,-0.11689 -0.169136,-0.237037 -0.223009,-0.372912 -0.0074,-0.01863 -0.01334,-0.03704 -0.01918,-0.05506 -0.17446,-0.206296 -0.38133,-0.388544 -0.618671,-0.543099 -0.208778,-0.196459 -0.441202,-0.37103 -0.700201,-0.518072 -0.30508,-0.173204 -0.634294,-0.300333 -0.978363,-0.38042 -0.630775,-0.146821 -1.278953,-0.128231 -1.901574,0.0075 -0.567568,0.123738 -1.120591,0.346289 -1.630605,0.635702 -0.458067,0.259934 -0.898546,0.582968 -1.278107,0.953552 -0.397405,0.344995 -0.718473,0.768959 -0.951986,1.233862 -0.234903,0.467671 -0.387841,0.992869 -0.426835,1.539199 -0.03804,0.532987 0.03046,1.102482 0.256581,1.651824 0.187977,0.456687 0.477575,0.881314 0.872853,1.236364 0.136866,0.199455 0.290664,0.382693 0.460406,0.548105 0.240389,0.234257 0.503848,0.424734 0.779334,0.575636 0.547449,0.299874 1.115261,0.432598 1.642595,0.485536 0.522602,0.05246 1.035795,0.02835 1.48433,-0.02002 0.453277,-0.04889 0.885932,-0.128351 1.234944,-0.192712 2.354568,-0.446055 4.411267,-1.521467 5.990077,-2.507768 0.0164,-0.01024 0.03196,-0.02168 0.04796,-0.03254 0.51813,-0.351753 0.891561,-0.765856 1.167801,-1.178801 0.295886,-0.442312 0.48665,-0.893078 0.618671,-1.253884 0.139033,-0.379967 0.274063,-0.839505 0.347703,-1.078691 0.119935,-0.389552 0.202041,-0.617127 0.290152,-0.810895 a 1.5254237,1.5254237 0 0 0 -1.218158,-2.14737 z m -8.706954,3.303646 c 0.09309,-9.58e-4 0.169979,0.0085 0.230203,0.02252 0.06486,0.0151 0.118304,0.03716 0.163061,0.06257 0.04432,0.02516 0.08916,0.05934 0.136683,0.107619 -0.0025,6.96e-4 -0.0093,0.0029 -0.0072,0.0025 a 1.5254237,1.5254237 0 0 0 -1.230148,2.70048 c -0.08496,-0.0013 -0.166192,-0.0049 -0.242193,-0.01251 -0.237043,-0.0238 -0.389937,-0.0734 -0.484385,-0.125138 -0.04569,-0.02503 -0.08268,-0.0535 -0.115102,-0.08509 -0.03241,-0.03158 -0.06934,-0.07554 -0.107908,-0.142658 -0.05185,-0.09023 -0.105997,-0.179931 -0.17505,-0.257784 -0.06905,-0.07785 -0.151605,-0.142978 -0.234999,-0.205227 -0.06616,-0.04939 -0.09988,-0.100723 -0.122295,-0.155171 -0.02561,-0.06221 -0.04459,-0.152032 -0.03597,-0.272801 0.0089,-0.124619 0.04645,-0.260802 0.110306,-0.387929 0.06588,-0.131166 0.150578,-0.235231 0.237397,-0.307839 0.0345,-0.02885 0.0665,-0.05832 0.09832,-0.0901 0.181963,-0.18179 0.41482,-0.359944 0.671426,-0.505558 0.273719,-0.155325 0.542309,-0.256688 0.776935,-0.30784 0.127791,-0.02786 0.237828,-0.03909 0.330917,-0.04004 z" />
      <path
         style="fill:#000000;fill-opacity:0.996587;stroke:none"
         d="m 31.525424,15.152542 c 0,0 1.830508,0.20339 1.830508,0.20339"
         id="path724"
         inkscape:path-effect="#path-effect726"
         inkscape:original-d="m 31.525424,15.152542 1.830508,0.20339" />
      <path
         id="path-1-9"
         style="fill:#000000;fill-opacity:0.996587;fill-rule:nonzero;stroke:none"
         d="m 31.74972,12.819663 a 1.5254237,1.5254237 0 0 0 -1.409994,2.337581 c 0.01495,0.02351 0.235944,0.388909 0.501171,0.675745 0.120515,0.130334 0.272904,0.274242 0.462804,0.405448 0.198432,0.137101 0.42224,0.248599 0.671426,0.325359 0.05374,0.01681 0.10961,0.03095 0.158265,0.04255 0.26869,0.06405 0.496614,0.07266 0.613875,0.07258 a 1.5254237,1.5254237 0 0 0 0.25658,-3.028342 c -0.03101,-0.04476 -0.06536,-0.09339 -0.08872,-0.130144 A 1.5254237,1.5254237 0 0 0 31.74972,12.819663 Z m 0.995149,0.808393 c 0.0055,-4e-6 0.02825,5.57e-4 0.05755,0.005 a 1.5254237,1.5254237 0 0 0 -0.05755,-0.005 z" />
      <path
         id="path-1-15"
         style="fill:#000000;fill-opacity:0.996587;fill-rule:nonzero;stroke:none"
         d="m 35.399399,12.244028 c -0.0025,0.0049 -0.0045,0.01019 -0.0072,0.01502 -0.04671,0.0818 -0.06159,0.09622 -0.110306,0.167685 -0.05185,0.06585 -0.102855,0.13376 -0.172652,0.180199 -0.06012,0.04408 -0.111657,0.101918 -0.179847,0.132646 -0.07644,0.0524 -0.155681,0.09981 -0.239794,0.137652 -0.07354,0.02687 -0.137801,0.07547 -0.213418,0.09761 -0.105035,0.03935 -0.215848,0.07174 -0.328519,0.07008 -0.06815,-10e-7 -0.135673,4e-6 -0.203826,0 -0.06952,-8e-6 -0.139106,3.5e-5 -0.208621,0 -0.09226,-5e-5 -0.183499,-0.0023 -0.275764,-0.0025 -0.0862,-2.56e-4 -0.172791,0.0018 -0.258979,0 -0.09253,-0.0024 -0.18586,-0.0076 -0.278162,-0.01502 -0.127122,-0.01099 -0.254942,-0.02461 -0.378876,-0.05756 -0.09035,-0.02828 -0.186168,-0.03215 -0.270968,-0.08009 -0.12772,-0.06998 -0.242114,-0.163026 -0.330917,-0.282812 -0.04575,-0.06385 -0.09057,-0.129893 -0.131887,-0.197719 a 1.5254237,1.5254237 0 0 0 -0.87765,2.755542 c 0.553596,0.402895 1.470823,0.83585 2.649734,0.770851 0.131757,-0.0073 0.256153,-0.02071 0.371682,-0.03754 0.320893,-0.04674 0.654672,-0.135062 0.987955,-0.275304 0.595444,-0.250556 0.993544,-0.588239 1.218158,-0.810895 a 1.5254237,1.5254237 0 0 0 -0.760149,-2.567834 z" />
    </g>
  </g>
</svg>
